<svg width="35" height="35" viewBox="0 0 35 35" fill="none" xmlns="http://www.w3.org/2000/svg">
<path d="M34.9866 9.08544C34.9805 8.35409 34.9729 7.60898 34.9729 6.85631C34.9729 6.43664 34.6323 6.09602 34.2126 6.09602C33.793 6.09602 33.4523 6.43664 33.4523 6.85631C33.4523 18.42 27.1239 19.904 21.6104 19.904C21.2257 19.904 20.8486 19.8979 20.4837 19.8858C20.2343 18.1007 18.986 16.7397 17.4867 16.7397C16.0042 16.7397 14.7665 18.0732 14.5034 19.8858C14.1263 19.8979 13.7386 19.9055 13.3448 19.9055C7.75373 19.9055 1.97574 18.3515 1.51958 6.82588C1.50283 6.40471 1.1379 6.08839 0.730425 6.09602C0.310828 6.11277 -0.0161109 6.46551 0.00063879 6.88518C0.00063879 6.88368 0.00063879 6.88668 0.00063879 6.88974C0.0493197 8.13356 0.0614365 9.35151 0.0721277 10.5284C0.120809 15.6998 0.16336 20.1656 3.33061 22.6592C7.16842 25.6775 12.9024 28.9041 17.4868 28.9041C22.0712 28.9041 27.8036 25.6775 31.6429 22.6592C35.0885 19.9466 35.0413 14.9136 34.9866 9.08544Z" fill="#EBEBEB"/>
<path d="M8.10505 16.9344C8.89114 16.9344 9.77609 16.3962 10.8953 15.7134C12.3869 14.8026 14.2435 13.6713 16.1715 13.6713C16.3297 13.6713 16.4908 13.6789 16.7281 13.7002C16.985 13.7002 17.2375 13.6515 17.4898 13.5511C17.7484 13.65 17.946 13.7093 18.3261 13.6956C20.429 13.4752 22.4666 14.728 24.0814 15.7133C25.2005 16.3961 26.0854 16.9344 26.8716 16.9344C27.279 16.9344 27.6364 16.7899 27.9101 16.5178C28.2006 16.2273 28.31 15.8198 28.2066 15.4002C27.7185 13.3885 21.1194 9.96729 19.2309 9.37278C19.1366 9.32717 19.0408 9.29673 18.8827 9.25268C18.6592 9.18882 18.4615 9.15233 18.2501 9.13715C17.9932 9.13715 17.7407 9.18583 17.4883 9.28618C17.2329 9.18732 16.9744 9.14477 16.6718 9.14021C16.5167 9.1524 16.3236 9.19039 16.0392 9.26794C15.9389 9.2953 15.8416 9.32724 15.8507 9.3303C13.8573 9.96586 7.25972 13.3871 6.77006 15.3987C6.66971 15.8184 6.77769 16.2259 7.06806 16.5163C7.34026 16.79 7.69757 16.9344 8.10505 16.9344Z" fill="#EBEBEB"/>
</svg>
