<svg width="45" height="45" viewBox="0 0 45 45" fill="none" xmlns="http://www.w3.org/2000/svg">
<path d="M37.5 20.6231H41.25C41.25 11.0044 33.9881 3.75 24.3563 3.75V7.5C31.9725 7.5 37.5 13.0181 37.5 20.6231Z" fill="#EBEBEB"/>
<path d="M24.375 15C28.3181 15 30 16.6818 30 20.625H33.75C33.75 14.5781 30.4219 11.25 24.375 11.25V15ZM30.7913 25.2056C30.431 24.8781 29.9575 24.7035 29.4709 24.7185C28.9843 24.7336 28.5225 24.9371 28.1831 25.2862L23.6963 29.9006C22.6163 29.6943 20.445 29.0175 18.21 26.7881C15.975 24.5512 15.2981 22.3743 15.0975 21.3018L19.7081 16.8131C20.0577 16.4739 20.2615 16.0121 20.2766 15.5253C20.2916 15.0386 20.1167 14.565 19.7888 14.205L12.8606 6.58683C12.5326 6.22563 12.0767 6.00653 11.5897 5.97607C11.1027 5.94561 10.623 6.10619 10.2525 6.42371L6.18376 9.91308C5.85959 10.2384 5.66611 10.6714 5.64001 11.13C5.61188 11.5987 5.07564 22.7025 13.6856 31.3162C21.1969 38.8256 30.6056 39.375 33.1969 39.375C33.5756 39.375 33.8081 39.3637 33.87 39.36C34.3285 39.3343 34.7612 39.1399 35.085 38.8143L38.5725 34.7437C38.8903 34.3735 39.0512 33.8939 39.0211 33.4069C38.9909 32.92 38.7722 32.4639 38.4113 32.1356L30.7913 25.2056Z" fill="#EBEBEB"/>
</svg>
