<svg width="35" height="35" viewBox="0 0 35 35" fill="none" xmlns="http://www.w3.org/2000/svg">
<path d="M10.7472 20.9558L16.494 18.6029C16.4731 17.7256 16.4446 16.9605 16.4205 16.4279C15.7518 16.9916 15.2156 17.4221 14.9261 17.6162C13.844 18.339 11.0561 19.3547 9.65013 19.8448C7.984 18.768 5.55494 19.1659 3.94089 20.883C2.17558 22.7598 2.0233 25.4667 3.59235 27.0442C3.62017 27.0732 3.64975 27.0999 3.67813 27.1289C5.3201 28.6712 8.10955 28.3806 9.89516 26.4791C11.4401 24.8339 11.7499 22.556 10.7472 20.9558ZM4.48506 26.2689L4.4272 26.2121C3.32683 25.1064 3.49361 23.0772 4.79834 21.6884C6.14044 20.2609 8.18303 19.9928 9.35035 21.0911L9.40876 21.1468C10.5101 22.2513 10.3418 24.2804 9.03717 25.6704C7.69552 27.0978 5.65358 27.3671 4.48506 26.2689Z" fill="#EBEBEB"/>
<path d="M18.7655 32.7218C20.0406 30.8053 19.9452 28.3879 18.5381 26.9746C18.5188 26.9552 18.4974 26.939 18.4781 26.9209C18.4233 25.5953 18.4662 22.721 19.5141 19.4501C19.6738 18.1138 29.06 0.234843 29.06 0.234843L28.4101 0L17.2334 15.801C17.2334 15.801 17.6716 23.1029 16.975 26.0629C15.2334 25.5707 13.1635 26.3889 11.9618 28.195C10.6867 30.1114 10.7826 32.5277 12.1892 33.9411C12.357 34.1107 12.5442 34.2641 12.7437 34.3959C14.6183 35.6453 17.3198 34.8936 18.7655 32.7218ZM18.4394 16.666C18.1606 16.3862 18.1627 15.9325 18.4415 15.6536C18.7226 15.3748 19.1751 15.3748 19.455 15.6557C19.7338 15.9357 19.7327 16.3893 19.4529 16.6681C19.172 16.9486 18.7182 16.9475 18.4394 16.666ZM13.3951 33.4157C13.261 33.3277 13.1356 33.2249 13.0241 33.1112C12.01 32.0923 11.9762 30.3003 12.9425 28.8471C14.0274 27.2169 15.9968 26.6121 17.3321 27.5011C17.4662 27.5902 17.5911 27.6931 17.7042 27.8047C18.7171 28.8236 18.7526 30.6166 17.7857 32.0688C16.6994 33.701 14.7303 34.3037 13.3951 33.4157Z" fill="#EBEBEB"/>
<path d="M32.4908 2.74336L31.9975 2.24786L25.6453 8.18717C24.4871 10.4484 23.2849 12.8234 22.3142 14.8016L32.4908 2.74336Z" fill="#EBEBEB"/>
</svg>
