<svg width="21" height="21" viewBox="0 0 21 21" fill="none" xmlns="http://www.w3.org/2000/svg">
<path d="M16.3776 6.4784C15.5468 6.29573 14.7954 5.8546 14.2309 5.21831C13.6665 4.58203 13.3182 3.78329 13.2359 2.93674V2.57007H10.3609V13.9617C10.3615 14.4672 10.203 14.96 9.90792 15.3704C9.61284 15.7808 9.19611 16.088 8.71677 16.2484C8.23742 16.4088 7.71976 16.4143 7.23711 16.2641C6.75447 16.114 6.3313 15.8158 6.02755 15.4117C5.75542 15.0541 5.58879 14.6275 5.54649 14.1801C5.50419 13.7327 5.58792 13.2824 5.7882 12.8801C5.98848 12.4778 6.29733 12.1395 6.67981 11.9036C7.0623 11.6677 7.50316 11.5435 7.95255 11.5451C8.20108 11.5436 8.44838 11.5802 8.68588 11.6534V8.73673C8.4095 8.70251 8.13097 8.68858 7.85255 8.69507C6.82698 8.72247 5.83165 9.04835 4.98845 9.63279C4.14526 10.2172 3.49079 11.0349 3.1052 11.9856C2.7196 12.9363 2.61962 13.9789 2.81748 14.9855C3.01535 15.9922 3.50248 16.9193 4.21922 17.6534C4.95379 18.4002 5.89379 18.9119 6.91979 19.1232C7.9458 19.3346 9.01148 19.2362 9.98143 18.8406C10.9514 18.4449 11.7818 17.7698 12.3672 16.9011C12.9527 16.0324 13.2666 15.0093 13.2692 13.9617V8.1284C14.4288 8.95669 15.8192 9.39977 17.2442 9.39507V6.56174C16.9643 6.56289 16.685 6.53496 16.4109 6.4784H16.3776Z" fill="#A78B28"/>
</svg>
