<svg width="21" height="21" viewBox="0 0 21 21" fill="none" xmlns="http://www.w3.org/2000/svg">
<path d="M18.5493 6.31411C18.4544 5.96195 18.2689 5.64078 18.0113 5.38258C17.7537 5.12439 17.4329 4.93816 17.081 4.84244C15.776 4.48411 10.5551 4.47828 10.5551 4.47828C10.5551 4.47828 5.33515 4.47244 4.02931 4.81494C3.67758 4.91507 3.3575 5.10393 3.09978 5.36339C2.84207 5.62285 2.65538 5.94421 2.55765 6.29661C2.21348 7.60161 2.21015 10.3083 2.21015 10.3083C2.21015 10.3083 2.20681 13.0283 2.54848 14.3199C2.74015 15.0341 3.30265 15.5983 4.01765 15.7908C5.33598 16.1491 10.5426 16.1549 10.5426 16.1549C10.5426 16.1549 15.7635 16.1608 17.0685 15.8191C17.4206 15.7236 17.7416 15.5378 17.9999 15.2801C18.2581 15.0224 18.4446 14.7018 18.541 14.3499C18.886 13.0458 18.8885 10.3399 18.8885 10.3399C18.8885 10.3399 18.9051 7.61911 18.5493 6.31411ZM8.88515 12.8158L8.88931 7.81578L13.2285 10.3199L8.88515 12.8158Z" fill="#A78B28"/>
</svg>
