<svg width="66" height="66" viewBox="0 0 66 66" fill="none" xmlns="http://www.w3.org/2000/svg">
<path d="M39.5105 18.6404C41.4728 18.6422 43.4127 19.0684 45.2036 19.8908C46.9945 20.7133 48.5963 21.9137 49.9045 23.4137L54 19.6269C51.3785 16.637 47.9392 14.527 44.1308 13.5722C40.3225 12.6173 36.322 12.8619 32.6512 14.2742C28.9805 15.6865 25.81 18.2008 23.5536 21.489C21.2971 24.7773 20.0595 28.6867 20.0021 32.7073C19.9447 36.7278 21.0703 40.6728 23.2319 44.0273C25.3936 47.3819 28.4909 49.9903 32.1198 51.5122C35.7486 53.034 39.7405 53.3988 43.5745 52.5587C47.4084 51.7186 50.9065 49.7126 53.6122 46.8027L49.6097 42.9046C48.0153 44.6147 46.0326 45.8929 43.8389 46.625C41.6452 47.3571 39.3087 47.5202 37.0385 47.0998C34.7682 46.6795 32.635 45.6889 30.8293 44.2163C29.0236 42.7437 27.6018 40.8352 26.6911 38.6613C25.7803 36.4874 25.4089 34.1159 25.6101 31.7589C25.8114 29.4018 26.5789 27.1325 27.8441 25.1541C29.1094 23.1756 30.8329 21.5495 32.8607 20.4212C34.8884 19.2928 37.1571 18.6974 39.4641 18.6881L39.5105 18.6404Z" fill="#A78B28"/>
<path d="M21 13.9094L16.9594 10.0001C13.8029 13.0153 11.2982 16.5993 9.589 20.5464C7.8799 24.4934 7 28.7257 7 33.0001C7 37.2745 7.8799 41.5068 9.589 45.4538C11.2982 49.4009 13.8029 52.9849 16.9594 56.0001L21 52.0908C18.3683 49.5945 16.2789 46.6217 14.8528 43.3446C13.4268 40.0676 12.6925 36.5515 12.6925 33.0001C12.6925 29.4487 13.4268 25.9326 14.8528 22.6556C16.2789 19.3785 18.3683 16.4057 21 13.9094Z" fill="#A78B28"/>
<path d="M59 6.47535C53.4907 2.26025 46.8335 -0.00854512 40 5.48765e-05V5.67595C45.6385 5.67055 51.1326 7.53516 55.6877 11.0001L59 6.47535Z" fill="#A78B28"/>
<path d="M40 60.4007V66.0001C46.3922 66.0073 52.6477 64.1436 58 60.6373L54.8559 56.0001C50.433 58.8791 45.2722 60.4079 40 60.4007Z" fill="#A78B28"/>
<path d="M40 53.485C35.6698 53.4821 31.445 52.1871 27.8976 49.7752C24.3501 47.3633 21.6513 43.9509 20.1663 40.0001L15 42.3304C16.9455 47.2368 20.3755 51.4557 24.8382 54.4313C29.3009 57.407 34.5869 58.9998 40 59.0001V53.485Z" fill="#A78B28"/>
<path d="M19.517 32.0001C19.8524 26.7396 22.1558 21.805 25.9597 18.1975C29.7636 14.5901 34.7832 12.5799 40 12.5748V7.00006C33.3193 6.99986 26.8943 9.59506 22.0546 14.2486C17.2149 18.9022 14.331 25.2578 14 32.0001H19.517Z" fill="#A78B28"/>
</svg>
