<svg width="160" height="66" viewBox="0 0 160 66" fill="none" xmlns="http://www.w3.org/2000/svg">
<mask id="mask0_7_106" style="mask-type:alpha" maskUnits="userSpaceOnUse" x="0" y="0" width="160" height="66">
<rect width="160" height="66" fill="#D9D9D9"/>
</mask>
<g mask="url(#mask0_7_106)">
<path d="M68.644 48.5713C66.5054 48.5713 64.4912 48.1538 62.6016 47.3189C60.7266 46.4693 59.0054 45.2242 57.438 43.5835C56.7642 42.8951 56.1489 42.1114 55.5923 41.2325C55.0356 40.3389 54.5596 39.3501 54.1641 38.2661C53.7686 37.1822 53.4609 35.9956 53.2412 34.7066C53.0215 33.4029 52.9116 31.9893 52.9116 30.4659C52.9116 29.3819 53.1094 28.2759 53.5049 27.148C53.915 26.0054 54.4717 24.9141 55.1748 23.8741C55.8779 22.8194 56.7056 21.8452 57.6577 20.9517C58.6099 20.0435 59.6353 19.2671 60.7339 18.6226C62.228 17.7144 63.7148 17.0918 65.1943 16.7549C66.6885 16.4034 68.0654 16.2276 69.3252 16.2276C69.9551 16.2276 70.6143 16.2788 71.3027 16.3814C71.9912 16.4839 72.6431 16.6158 73.2583 16.7769C73.8882 16.938 74.4595 17.1138 74.9722 17.3042C75.4995 17.4947 75.9097 17.6778 76.2026 17.8535C76.9058 18.2784 77.6235 18.8057 78.356 19.4356C79.0884 20.0655 79.7769 20.7466 80.4214 21.479C81.0659 22.2115 81.6445 22.9659 82.1572 23.7422C82.6846 24.5039 83.0947 25.229 83.3877 25.9175C83.8857 27.0601 84.2227 28.2027 84.3984 29.3452C84.5742 30.4878 84.6621 31.6743 84.6621 32.9048C84.6621 34.2232 84.5229 35.461 84.2446 36.6182C83.981 37.7608 83.5928 38.8374 83.0801 39.8482C82.5674 40.8589 81.9375 41.8111 81.1904 42.7046C80.458 43.5835 79.623 44.4258 78.6855 45.2315C77.9971 45.8028 77.2939 46.3008 76.5762 46.7256C75.8584 47.1358 75.0894 47.48 74.269 47.7583C73.4634 48.0367 72.5991 48.2417 71.6763 48.3736C70.7534 48.5054 69.7427 48.5713 68.644 48.5713ZM58.6465 32.729C58.6465 33.4322 58.6831 34.1499 58.7563 34.8824C58.8296 35.6001 58.9468 36.3179 59.1079 37.0357C59.269 37.7388 59.4741 38.42 59.7231 39.0791C59.9868 39.7383 60.3018 40.3535 60.668 40.9248C61.1367 41.7012 61.6567 42.4629 62.228 43.21C62.814 43.9424 63.4585 44.6089 64.1616 45.2095C64.8794 45.7954 65.6631 46.2715 66.5127 46.6377C67.377 46.9893 68.3145 47.1651 69.3252 47.1651C70.2773 47.1651 71.2002 46.938 72.0938 46.4839C72.9873 46.0152 73.8149 45.4073 74.5767 44.6602C75.3384 43.8985 76.0195 43.0415 76.6201 42.0894C77.2354 41.1372 77.7334 40.1704 78.1143 39.189C78.1582 39.0425 78.2461 38.7788 78.3779 38.398C78.5244 38.0025 78.6709 37.5264 78.8174 36.9698C78.9639 36.4131 79.0884 35.7832 79.1909 35.0801C79.3081 34.377 79.3667 33.6299 79.3667 32.8389C79.3667 32.1358 79.3081 31.3741 79.1909 30.5537C79.0884 29.7334 78.9199 28.8911 78.6855 28.0269C78.4658 27.148 78.1875 26.2691 77.8506 25.3902C77.5137 24.5113 77.1182 23.669 76.6641 22.8633C76.2686 22.1748 75.8071 21.501 75.2798 20.8418C74.7524 20.168 74.1519 19.5747 73.478 19.062C72.8188 18.5347 72.0864 18.1172 71.2808 17.8096C70.4751 17.4873 69.5962 17.3262 68.644 17.3262C67.7358 17.3262 66.8716 17.5166 66.0513 17.8975C65.231 18.2784 64.4839 18.7544 63.8101 19.3257C63.1362 19.8824 62.543 20.4829 62.0303 21.1275C61.5322 21.7574 61.1294 22.336 60.8218 22.8633C60.5874 23.2735 60.3384 23.7862 60.0747 24.4014C59.8257 25.0166 59.5913 25.7344 59.3716 26.5547C59.1665 27.375 58.9907 28.3052 58.8442 29.3452C58.7124 30.3706 58.6465 31.4986 58.6465 32.729ZM92.1548 46.0225V19.3477C92.1548 19.1426 92.0889 18.9742 91.957 18.8423C91.8252 18.7105 91.6567 18.6079 91.4517 18.5347C91.2612 18.4468 91.0562 18.3882 90.8364 18.3589C90.6167 18.3296 90.4189 18.315 90.2432 18.315H89.3423C89.1372 18.315 88.9688 18.315 88.8369 18.315C88.7051 18.315 88.5806 18.3003 88.4634 18.271C88.2876 18.271 88.1997 18.2198 88.1997 18.1172C88.1997 17.9561 88.2876 17.8535 88.4634 17.8096C88.9468 17.7217 89.3862 17.6558 89.7817 17.6118C90.1919 17.5679 90.5947 17.5386 90.9902 17.524C91.3857 17.4947 91.7812 17.48 92.1768 17.48C92.5869 17.4654 93.0337 17.4361 93.5171 17.3921C93.5903 17.3921 93.7515 17.3848 94.0005 17.3701C94.2642 17.3409 94.5718 17.3116 94.9233 17.2823C95.2896 17.253 95.6704 17.2237 96.0659 17.1944C96.4761 17.1504 96.8569 17.1138 97.2085 17.0845C97.5747 17.0406 97.8896 17.0039 98.1533 16.9746C98.417 16.9453 98.5928 16.9234 98.6807 16.9087C99.1055 16.8501 99.5669 16.8062 100.065 16.7769C100.578 16.7329 101.083 16.711 101.581 16.711C103.104 16.711 104.481 16.9014 105.712 17.2823C106.957 17.6631 108.019 18.2051 108.898 18.9082C109.777 19.6114 110.451 20.4536 110.919 21.4351C111.403 22.4165 111.645 23.5078 111.645 24.709C111.645 25.6612 111.542 26.562 111.337 27.4117C111.132 28.2466 110.729 29.0669 110.128 29.8726C109.835 30.2534 109.521 30.583 109.184 30.8614C108.861 31.125 108.524 31.3667 108.173 31.5865C107.836 31.8062 107.484 32.0113 107.118 32.2017C106.752 32.3921 106.386 32.6045 106.02 32.8389C105.917 32.8975 105.866 33 105.866 33.1465C105.866 33.1758 105.902 33.2637 105.976 33.4102C106.972 34.626 107.938 35.8638 108.876 37.1236C109.813 38.3833 110.722 39.6797 111.601 41.0127C112.011 41.584 112.465 42.1626 112.963 42.7486C113.476 43.3345 113.988 43.8838 114.501 44.3965C114.779 44.6748 115.065 44.9385 115.358 45.1875C115.651 45.4366 115.988 45.6783 116.369 45.9126C116.764 46.1324 117.226 46.3448 117.753 46.5498C118.28 46.7403 118.91 46.9087 119.643 47.0552C119.833 47.1138 119.994 47.1797 120.126 47.253C120.272 47.3116 120.346 47.4068 120.346 47.5386C120.346 47.8023 120.258 47.9414 120.082 47.9561C120.053 47.9854 119.987 48 119.884 48C119.796 48 119.687 48 119.555 48H118.983C118.69 48 118.339 48 117.929 48C117.533 47.9854 117.108 47.9781 116.654 47.9781C116.215 47.9634 115.761 47.9488 115.292 47.9341C114.823 47.9195 114.391 47.9048 113.996 47.8902C113.41 47.8609 112.86 47.8096 112.348 47.7364C111.835 47.6631 111.322 47.458 110.81 47.1211C110.473 46.96 110.121 46.6817 109.755 46.2862C109.389 45.876 109.044 45.4366 108.722 44.9678C108.327 44.4405 107.902 43.8545 107.448 43.21C107.008 42.5655 106.562 41.9136 106.107 41.2544C105.653 40.5952 105.207 39.9507 104.767 39.3208C104.342 38.6909 103.947 38.1197 103.581 37.607C103.229 37.0796 102.929 36.6402 102.68 36.2886C102.445 35.9224 102.292 35.6807 102.218 35.5635C102.16 35.4756 102.05 35.3218 101.889 35.1021C101.742 34.8824 101.581 34.6626 101.405 34.4429C101.229 34.2085 101.054 34.0034 100.878 33.8277C100.702 33.6372 100.57 33.5347 100.482 33.5201C100.131 33.4761 99.7207 33.4468 99.252 33.4322C98.7979 33.4175 98.3804 33.4102 97.9995 33.4102H97.4282C97.2671 33.4102 97.106 33.4541 96.9448 33.542C96.7983 33.6153 96.6958 33.7471 96.6372 33.9375V44.3086C96.6372 44.4844 96.6445 44.6895 96.6592 44.9239C96.6885 45.1582 96.7251 45.3853 96.769 45.605C96.813 45.8247 96.8716 46.0298 96.9448 46.2202C97.0181 46.396 97.106 46.5205 97.2085 46.5938C97.3989 46.7256 97.7212 46.8428 98.1753 46.9453C98.6294 47.0332 99.1055 47.1065 99.6035 47.1651C100.116 47.209 100.6 47.2456 101.054 47.2749C101.522 47.3042 101.852 47.3189 102.042 47.3189C102.174 47.3189 102.262 47.3775 102.306 47.4947C102.35 47.6118 102.372 47.729 102.372 47.8462C102.372 48.0074 102.335 48.1026 102.262 48.1319C102.204 48.1758 102.079 48.1978 101.889 48.1978C101.654 48.1978 101.281 48.1831 100.768 48.1538C100.255 48.1392 99.7134 48.1172 99.1421 48.0879C98.5854 48.0733 98.0654 48.0513 97.582 48.022C97.1133 48.0074 96.7983 48 96.6372 48H89.8257C89.7671 48 89.6719 48 89.54 48C89.4082 47.9854 89.2617 47.9781 89.1006 47.9781C88.9395 47.9634 88.7783 47.9561 88.6172 47.9561C88.4561 47.9414 88.3169 47.9341 88.1997 47.9341C88.0386 47.9048 87.9067 47.8902 87.8042 47.8902C87.7163 47.8755 87.6724 47.7876 87.6724 47.6265C87.6724 47.524 87.7017 47.4507 87.7603 47.4068C87.8188 47.3482 87.9653 47.2823 88.1997 47.209C88.478 47.1504 88.8296 47.1211 89.2544 47.1211C89.6938 47.1065 90.1187 47.0699 90.5288 47.0113C90.939 46.9527 91.2979 46.8575 91.6055 46.7256C91.9277 46.5791 92.1108 46.3448 92.1548 46.0225ZM96.6372 18.2051V32.3116C96.6372 32.458 96.6812 32.5826 96.769 32.6851C96.8569 32.7876 96.9521 32.8389 97.0547 32.8389H97.9336C98.4316 32.8389 98.959 32.8169 99.5156 32.773C100.072 32.729 100.519 32.6704 100.856 32.5972C101.251 32.4947 101.647 32.3335 102.042 32.1138C102.438 31.8794 102.812 31.6231 103.163 31.3448C103.515 31.0518 103.844 30.7442 104.152 30.4219C104.459 30.085 104.73 29.7627 104.965 29.4551C105.214 29.1035 105.434 28.7813 105.624 28.4883C105.814 28.1953 105.976 27.8877 106.107 27.5655C106.254 27.2432 106.364 26.8843 106.437 26.4888C106.525 26.0786 106.591 25.5952 106.635 25.0386C106.635 24.2622 106.576 23.5738 106.459 22.9732C106.342 22.3579 106.151 21.8013 105.888 21.3033C105.639 20.8052 105.324 20.3438 104.943 19.919C104.562 19.4942 104.108 19.084 103.581 18.6885C103.405 18.5713 103.2 18.4541 102.965 18.3369C102.746 18.2198 102.511 18.1172 102.262 18.0293C102.013 17.9268 101.757 17.8389 101.493 17.7657C101.229 17.6924 100.98 17.6338 100.746 17.5899C100.614 17.5606 100.395 17.5459 100.087 17.5459C99.7793 17.5313 99.5303 17.524 99.3398 17.524C99.1348 17.524 98.8784 17.5313 98.5708 17.5459C98.2632 17.5459 97.9629 17.5679 97.6699 17.6118C97.3916 17.6558 97.1499 17.729 96.9448 17.8316C96.7397 17.9195 96.6372 18.044 96.6372 18.2051ZM134.979 20.0508V45.5391C134.979 45.876 135.163 46.1324 135.529 46.3081C135.91 46.4839 136.342 46.6158 136.825 46.7036C137.323 46.7915 137.814 46.8575 138.297 46.9014C138.781 46.9307 139.132 46.9673 139.352 47.0113C139.484 47.1724 139.557 47.2896 139.572 47.3628C139.601 47.4214 139.616 47.5166 139.616 47.6485C139.616 47.7803 139.572 47.8902 139.484 47.9781C139.411 48.0659 139.315 48.1319 139.198 48.1758C139.081 48.2344 138.949 48.2784 138.803 48.3076C138.671 48.3369 138.546 48.3516 138.429 48.3516C138.136 48.3516 137.689 48.3223 137.089 48.2637C136.488 48.2051 135.851 48.1392 135.177 48.0659C134.518 48.0074 133.874 47.9488 133.244 47.8902C132.628 47.8316 132.152 47.8023 131.815 47.8023C131.244 47.8023 130.695 47.8096 130.167 47.8242C129.64 47.8389 129.091 47.8975 128.52 48C128.402 48 128.212 48.022 127.948 48.0659C127.699 48.1245 127.421 48.1831 127.113 48.2417C126.806 48.3003 126.498 48.3516 126.19 48.3955C125.897 48.4541 125.656 48.4834 125.465 48.4834C125.319 48.4834 125.209 48.4175 125.136 48.2857C125.062 48.1685 125.026 48.0733 125.026 48C125.026 47.8096 125.128 47.6558 125.333 47.5386C125.553 47.4214 125.736 47.3482 125.883 47.3189C125.971 47.2749 126.132 47.2237 126.366 47.1651C126.615 47.1065 126.886 47.0479 127.179 46.9893C127.472 46.916 127.75 46.8501 128.014 46.7915C128.292 46.7183 128.512 46.6524 128.673 46.5938C128.908 46.5352 129.113 46.4766 129.289 46.418C129.464 46.3448 129.611 46.2569 129.728 46.1543C129.845 46.0371 129.933 45.8907 129.992 45.7149C130.05 45.5244 130.08 45.2827 130.08 44.9898V20.9297C130.08 20.8125 130.072 20.688 130.058 20.5562C130.043 20.4097 130.014 20.2779 129.97 20.1607C129.926 20.0435 129.86 19.9483 129.772 19.875C129.684 19.8018 129.56 19.7652 129.398 19.7652H124.477C123.817 19.7652 123.253 19.8238 122.785 19.9409C122.316 20.0435 121.884 20.2119 121.488 20.4463C121.005 20.6953 120.514 21.0323 120.016 21.4571C119.533 21.8819 119.159 22.3286 118.896 22.7974C118.852 22.8706 118.808 22.9732 118.764 23.105C118.734 23.2368 118.69 23.3687 118.632 23.5005C118.573 23.6324 118.507 23.7495 118.434 23.8521C118.361 23.9546 118.273 24.0059 118.17 24.0059C118.112 24.0059 118.046 23.9619 117.973 23.8741C117.899 23.7862 117.826 23.6763 117.753 23.5445C117.68 23.398 117.614 23.2442 117.555 23.083C117.511 22.9073 117.489 22.7388 117.489 22.5777C117.489 22.2554 117.555 21.9185 117.687 21.5669C117.833 21.2154 118.009 20.8418 118.214 20.4463C118.419 20.0508 118.639 19.626 118.874 19.1719C119.108 18.7032 119.32 18.1905 119.511 17.6338V17.2383C119.511 17.1358 119.533 17.0259 119.577 16.9087C119.65 16.7769 119.752 16.7036 119.884 16.689C120.031 16.6597 120.185 16.6451 120.346 16.6451C120.478 16.6451 120.587 16.689 120.675 16.7769C120.763 16.8501 120.851 16.938 120.939 17.0406C121.027 17.1431 121.122 17.253 121.225 17.3701C121.342 17.4727 121.481 17.5459 121.642 17.5899C121.818 17.6338 122.155 17.6924 122.653 17.7657C123.151 17.8242 123.832 17.8828 124.696 17.9414C125.575 18 126.645 18.0513 127.904 18.0952C129.164 18.1392 130.651 18.1612 132.365 18.1612C132.775 18.1612 133.244 18.1538 133.771 18.1392C134.298 18.1099 134.84 18.0806 135.397 18.0513C135.968 18.022 136.532 18 137.089 17.9854C137.646 17.9561 138.158 17.9414 138.627 17.9414C138.993 17.9414 139.323 17.9561 139.616 17.9854C139.909 18.0147 140.224 18.0586 140.561 18.1172C140.736 18.1465 140.927 18.1758 141.132 18.2051C141.337 18.2344 141.542 18.2637 141.747 18.293C141.952 18.3076 142.143 18.3223 142.318 18.3369C142.494 18.3516 142.633 18.3589 142.736 18.3589C143.014 18.3589 143.153 18.2051 143.153 17.8975C143.153 17.7364 143.205 17.5826 143.307 17.4361C143.439 17.2749 143.615 17.0845 143.834 16.8648C144.054 16.6451 144.245 16.5352 144.406 16.5352C144.523 16.5352 144.647 16.6158 144.779 16.7769C144.926 16.938 145.065 17.1358 145.197 17.3701C145.343 17.5899 145.475 17.8169 145.592 18.0513C145.724 18.271 145.834 18.4468 145.922 18.5786C146.024 18.813 146.098 19.0987 146.142 19.4356C146.186 19.7578 146.237 20.0069 146.295 20.1826C146.354 20.3145 146.479 20.5269 146.669 20.8199C146.874 21.1128 147.079 21.4278 147.284 21.7647C147.489 22.0869 147.672 22.4019 147.833 22.7095C148.009 23.0171 148.097 23.2588 148.097 23.4346C148.097 23.8155 147.929 24.0059 147.592 24.0059C147.387 24.0059 147.138 23.8887 146.845 23.6543C146.566 23.42 146.266 23.149 145.944 22.8413C145.636 22.5337 145.321 22.2261 144.999 21.9185C144.677 21.5962 144.376 21.3472 144.098 21.1714C143.908 21.0542 143.644 20.9224 143.307 20.7759C142.985 20.6294 142.641 20.4829 142.274 20.3365C141.908 20.19 141.549 20.0655 141.198 19.9629C140.846 19.8604 140.546 19.7945 140.297 19.7652C139.901 19.6919 139.491 19.6553 139.066 19.6553C138.642 19.6407 138.231 19.6333 137.836 19.6333H136.583C136.54 19.6333 136.43 19.6407 136.254 19.6553C136.093 19.67 135.917 19.6992 135.727 19.7432C135.536 19.7725 135.36 19.8164 135.199 19.875C135.053 19.919 134.979 19.9776 134.979 20.0508ZM146.208 44.6822C146.208 44.2867 146.295 43.8911 146.471 43.4956C146.647 43.1001 146.786 42.7412 146.889 42.419C146.889 42.3457 146.903 42.2212 146.933 42.0454C146.977 41.855 147.021 41.6573 147.064 41.4522C147.108 41.2471 147.152 41.0567 147.196 40.8809C147.24 40.6905 147.277 40.5513 147.306 40.4634C147.35 40.2876 147.467 40.1997 147.658 40.1997C147.848 40.1997 147.958 40.3389 147.987 40.6172V41.1226C147.987 41.357 147.995 41.5181 148.009 41.606C148.024 41.6939 148.046 41.7744 148.075 41.8477C148.192 42.4922 148.375 43.1221 148.625 43.7373C148.874 44.3379 149.196 44.8799 149.591 45.3633C149.987 45.8321 150.456 46.2129 150.998 46.5059C151.554 46.7989 152.199 46.9453 152.931 46.9453C153.473 46.9453 153.993 46.8648 154.491 46.7036C154.989 46.5279 155.429 46.2862 155.81 45.9785C156.205 45.6563 156.513 45.2681 156.732 44.814C156.967 44.3599 157.084 43.8472 157.084 43.2759C157.084 42.397 156.923 41.6719 156.601 41.1006C156.293 40.5293 155.883 40.0606 155.37 39.6944C154.872 39.3135 154.293 38.9986 153.634 38.7495C152.99 38.5005 152.323 38.2661 151.635 38.0464C150.961 37.812 150.294 37.5557 149.635 37.2774C148.991 36.9991 148.412 36.6402 147.899 36.2007C147.401 35.7466 146.991 35.1826 146.669 34.5088C146.361 33.835 146.208 32.9854 146.208 31.96C146.208 31.6231 146.237 31.3155 146.295 31.0371C146.369 30.7588 146.457 30.5098 146.559 30.2901C146.662 30.0557 146.764 29.8506 146.867 29.6748C146.969 29.4991 147.064 29.3379 147.152 29.1914C147.372 28.8399 147.643 28.4956 147.965 28.1587C148.302 27.8072 148.69 27.4995 149.13 27.2359C149.569 26.9722 150.06 26.7598 150.602 26.5987C151.159 26.4229 151.759 26.335 152.404 26.335C153.004 26.335 153.627 26.4522 154.271 26.6866C154.916 26.9063 155.495 27.2066 156.007 27.5874C156.168 27.7486 156.33 27.9097 156.491 28.0708C156.652 28.232 156.813 28.3125 156.974 28.3125C157.194 28.3125 157.362 28.2466 157.479 28.1148C157.611 27.9683 157.758 27.7779 157.919 27.5435C157.948 27.5288 157.97 27.5142 157.985 27.4995C158.014 27.4849 158.043 27.4776 158.073 27.4776C158.117 27.4776 158.146 27.5142 158.161 27.5874C158.19 27.6607 158.212 27.7486 158.227 27.8511C158.256 27.939 158.271 28.0342 158.271 28.1367C158.285 28.2393 158.292 28.3125 158.292 28.3565C158.292 28.4004 158.271 28.5469 158.227 28.7959C158.197 29.045 158.146 29.3452 158.073 29.6968C158.014 30.0337 157.941 30.3999 157.853 30.7954C157.78 31.1763 157.692 31.5352 157.589 31.8721C157.501 32.1944 157.406 32.4654 157.304 32.6851C157.216 32.9048 157.128 33.0147 157.04 33.0147C157.011 33.0147 156.989 33.0074 156.974 32.9927C156.93 32.9634 156.901 32.9341 156.886 32.9048C156.769 32.6851 156.681 32.502 156.623 32.3555C156.579 32.209 156.542 32.0699 156.513 31.938C156.498 31.8062 156.483 31.6743 156.469 31.5425C156.469 31.4107 156.454 31.2569 156.425 31.0811C156.396 30.8614 156.322 30.649 156.205 30.4439C156.029 29.9605 155.832 29.565 155.612 29.2574C155.407 28.9497 155.121 28.6348 154.755 28.3125C154.535 28.0489 154.323 27.8511 154.118 27.7193C153.927 27.5728 153.715 27.4702 153.48 27.4117C153.246 27.3384 152.982 27.3018 152.689 27.3018C152.396 27.2871 152.038 27.2798 151.613 27.2798C151.203 27.2798 150.822 27.375 150.47 27.5655C150.133 27.7559 149.84 28.0049 149.591 28.3125C149.342 28.6201 149.145 28.979 148.998 29.3892C148.866 29.7847 148.8 30.1949 148.8 30.6197C148.8 31.3374 148.954 31.9307 149.262 32.3994C149.584 32.8535 150.001 33.2417 150.514 33.564C151.042 33.8716 151.635 34.1426 152.294 34.377C152.953 34.5967 153.62 34.8311 154.293 35.0801C154.982 35.3145 155.656 35.5928 156.315 35.9151C156.974 36.2227 157.56 36.6328 158.073 37.1455C158.6 37.6436 159.018 38.2661 159.325 39.0132C159.647 39.7603 159.809 40.6905 159.809 41.8037C159.809 42.5508 159.625 43.2906 159.259 44.023C158.908 44.7554 158.432 45.4366 157.831 46.0664C157.567 46.3594 157.23 46.6231 156.82 46.8575C156.41 47.0918 155.956 47.2969 155.458 47.4727C154.975 47.6338 154.455 47.7657 153.898 47.8682C153.356 47.9561 152.821 48 152.294 48C151.767 48 151.151 47.8902 150.448 47.6704C149.745 47.4361 149.079 47.1577 148.449 46.8355C147.819 46.4986 147.284 46.1397 146.845 45.7588C146.42 45.3633 146.208 45.0044 146.208 44.6822Z" fill="white"/>
<path d="M32.5105 18.6404C34.4728 18.6422 36.4127 19.0684 38.2036 19.8908C39.9945 20.7133 41.5963 21.9137 42.9045 23.4137L47 19.6269C44.3785 16.637 40.9392 14.527 37.1308 13.5722C33.3225 12.6173 29.322 12.8619 25.6512 14.2742C21.9805 15.6865 18.81 18.2008 16.5536 21.489C14.2971 24.7773 13.0595 28.6867 13.0021 32.7073C12.9447 36.7278 14.0703 40.6728 16.2319 44.0273C18.3936 47.3819 21.4909 49.9903 25.1198 51.5122C28.7486 53.034 32.7405 53.3988 36.5745 52.5587C40.4084 51.7186 43.9065 49.7126 46.6122 46.8027L42.6097 42.9046C41.0153 44.6147 39.0326 45.8929 36.8389 46.625C34.6452 47.3571 32.3087 47.5202 30.0385 47.0998C27.7682 46.6795 25.635 45.6889 23.8293 44.2163C22.0236 42.7437 20.6018 40.8352 19.6911 38.6613C18.7803 36.4874 18.4089 34.1159 18.6101 31.7589C18.8114 29.4018 19.5789 27.1325 20.8441 25.1541C22.1094 23.1756 23.8329 21.5495 25.8607 20.4212C27.8884 19.2928 30.1571 18.6974 32.4641 18.6881L32.5105 18.6404Z" fill="#A78B28"/>
<path d="M14 13.9094L9.9594 10.0001C6.8029 13.0153 4.2982 16.5993 2.589 20.5464C0.879901 24.4934 0 28.7257 0 33.0001C0 37.2745 0.879901 41.5068 2.589 45.4538C4.2982 49.4009 6.8029 52.9849 9.9594 56.0001L14 52.0908C11.3683 49.5945 9.2789 46.6217 7.8528 43.3446C6.4268 40.0676 5.6925 36.5515 5.6925 33.0001C5.6925 29.4487 6.4268 25.9326 7.8528 22.6556C9.2789 19.3785 11.3683 16.4057 14 13.9094Z" fill="#A78B28"/>
<path d="M52 6.47535C46.4907 2.26025 39.8335 -0.00854512 33 5.48765e-05V5.67595C38.6385 5.67055 44.1326 7.53516 48.6877 11.0001L52 6.47535Z" fill="#A78B28"/>
<path d="M33 60.4007V66.0001C39.3922 66.0073 45.6477 64.1436 51 60.6373L47.8559 56.0001C43.433 58.8791 38.2722 60.4079 33 60.4007Z" fill="#A78B28"/>
<path d="M33 53.485C28.6698 53.4821 24.445 52.1871 20.8976 49.7752C17.3501 47.3633 14.6513 43.9509 13.1663 40.0001L8 42.3304C9.9455 47.2368 13.3755 51.4557 17.8382 54.4313C22.3009 57.407 27.5869 58.9998 33 59.0001V53.485Z" fill="#A78B28"/>
<path d="M12.517 32.0001C12.8524 26.7396 15.1558 21.805 18.9597 18.1975C22.7636 14.5901 27.7832 12.5799 33 12.5748V7.00006C26.3193 6.99986 19.8943 9.59506 15.0546 14.2486C10.2149 18.9022 7.331 25.2578 7 32.0001H12.517Z" fill="#A78B28"/>
</g>
</svg>
