<svg width="32" height="32" viewBox="0 0 32 32" fill="none" xmlns="http://www.w3.org/2000/svg">
<path d="M6.78787 6.74381L4.8288 4.84839C3.29837 6.3103 2.08397 8.048 1.25527 9.96174C0.426618 11.8754 0 13.9275 0 15.9999C0 18.0723 0.426618 20.1244 1.25527 22.038C2.08397 23.9518 3.29837 25.6895 4.8288 27.1514L6.78787 25.256C5.5119 24.0457 4.49886 22.6043 3.80741 21.0154C3.11602 19.4266 2.76 17.7218 2.76 15.9999C2.76 14.278 3.11602 12.5732 3.80741 10.9844C4.49886 9.39549 5.5119 7.95413 6.78787 6.74381Z" fill="#A78B28"/>
<path d="M25.2121 3.13955C22.5409 1.09587 19.3132 -0.00415788 16 1.18104e-05V2.75196C18.7338 2.74934 21.3976 3.65339 23.6062 5.33334L25.2121 3.13955Z" fill="#A78B28"/>
<path d="M16 29.2852V32.0001C19.0992 32.0036 22.1322 31.1 24.7273 29.3999L23.2029 27.1516C21.0584 28.5475 18.5562 29.2887 16 29.2852Z" fill="#A78B28"/>
</svg>
